<svg xmlns="http://www.w3.org/2000/svg" viewBox="0 0 512 512"><title>Artboard 152</title><g id="Encrypted_Cloud" data-name="Encrypted Cloud"><path d="M339.71745,172.65365a127.9009,127.9009,0,1,0-252.112,42.99088A85.24706,85.24706,0,0,0,106.66667,384H320a106.58538,106.58538,0,0,0,19.71745-211.34635Z" style="fill:#91edf8"/><circle cx="160" cy="288" r="96" style="fill:#91edf8"/><circle cx="213.33333" cy="192" r="128" style="fill:#91edf8"/><ellipse cx="181.33333" cy="160" rx="108.21031" ry="81.97862" transform="translate(-60.02578 175.08494) rotate(-45)" style="fill:#bcf4f8"/><circle cx="298.66667" cy="256" r="85.33333" style="fill:#bcf4f8"/><circle cx="106.66667" cy="298.66667" r="85.33333" style="fill:#bcf4f8"/><ellipse cx="74.66667" cy="266.66667" rx="37.17047" ry="25.80679" transform="translate(-166.69245 130.90216) rotate(-45)" style="fill:#d7f8f9"/><ellipse cx="202.66667" cy="138.66667" rx="57.09641" ry="49.28184" transform="translate(-38.69245 183.9215) rotate(-45)" style="fill:#d7f8f9"/><ellipse cx="266.66667" cy="245.33333" rx="61.95079" ry="43.01132" transform="translate(-95.37201 260.41828) rotate(-45)" style="fill:#d7f8f9"/><path d="M416,234.66667a74.26016,74.26016,0,0,0-69.49349,101.49349l-69.17318,69.17317V448H320.849V426.66667h20.48437V405.33333h21.33334l26.50651-26.50651A74.59042,74.59042,0,1,0,416,234.66667Z" style="fill:#fcdf3f"/><path d="M405.33333,235.74219A74.26362,74.26362,0,0,0,346.40365,336.263l-69.07032,69.07031V448H320V426.66667h21.33333V405.33333h21.33334l26.50651-26.50651-.61589-.61588a74.42148,74.42148,0,0,0,16.776,4.71354,74.30982,74.30982,0,0,0,0-147.18229Z" style="fill:#ffef7d"/><path d="M288,448a10.66667,10.66667,0,0,1-7.54167-18.20833l64-64A10.66553,10.66553,0,0,1,359.54167,380.875l-64,64A10.63213,10.63213,0,0,1,288,448Z" style="fill:#fbc700"/><path d="M416,362.66667a10.66667,10.66667,0,0,1,0-21.33334,32,32,0,0,0,0-64A10.66666,10.66666,0,1,1,416,256a53.33333,53.33333,0,0,1,0,106.66667Z" style="fill:#fcdf3f"/><path d="M416,362.66667A53.33334,53.33334,0,0,1,416,256a10.66667,10.66667,0,1,1,0,21.33333,32,32,0,0,0,0,64,10.66667,10.66667,0,0,1,0,21.33334Z" style="fill:#fbc700"/></g></svg>